<!-- by TradingView --><svg width="18" height="18" viewBox="0 0 18 18" xmlns="http://www.w3.org/2000/svg"><path fill="#F0F3FA" d="M0 0h18v18H0z"/><path d="M8 3H6v12h2v-3.19c.6.5 1.64.63 2.19.63a3.73 3.73 0 0 0 3.73-3.46c-.09-2.72-1.99-4.35-3.65-4.42-1-.05-1.8.39-2.27.78V3Zm0 5.87v-1.4a2 2 0 0 1 .63-.66c.57-.38 1.92-.8 2.8.52 1.1 1.65.17 2.76-.5 3.08-.68.32-1.89.35-2.51-.71A5.66 5.66 0 0 1 8 8.87Z" fill="#00628D"/><rect width="1.52" height="1.82" rx=".76" transform="matrix(.88243 -.47043 .50923 .86063 9.34 8.62)" fill="#D5542F"/></svg>